<svg width="40" height="40" viewBox="0 0 40 40" fill="none" xmlns="http://www.w3.org/2000/svg">
<g clip-path="url(#clip0_3618_925)">
<path d="M35.5556 0C36.7343 0 37.8648 0.468252 38.6983 1.30175C39.5317 2.13524 40 3.2657 40 4.44444V35.5556C40 36.7343 39.5317 37.8648 38.6983 38.6983C37.8648 39.5317 36.7343 40 35.5556 40H4.44444C3.2657 40 2.13524 39.5317 1.30175 38.6983C0.468252 37.8648 0 36.7343 0 35.5556V4.44444C0 3.2657 0.468252 2.13524 1.30175 1.30175C2.13524 0.468252 3.2657 0 4.44444 0H35.5556ZM27.9556 31.1111L25.8444 22.0444L32.8667 15.9778L23.6 15.1778L20 6.66667L16.4 15.2L7.13333 16L14.1556 22.0667L12.0444 31.1111L20 26.3111L27.9556 31.1111Z" fill="#3A3A3A"/>
</g>
<defs>
<clipPath id="clip0_3618_925">
<rect width="40" height="40" fill="white"/>
</clipPath>
</defs>
</svg>
